{"glyphs":{"0":{"ha":610,"x_min":0,"x_max":543,"o":"m 0 692 q 271 963 0 963 q 543 692 543 963 l 543 258 q 271 -14 543 -14 q 0 258 0 -14 l 0 692 m 203 231 q 271 163 203 163 q 339 231 339 163 l 339 719 q 271 787 339 787 q 203 719 203 787 l 203 231 z "},"1":{"ha":339,"x_min":0,"x_max":271,"o":"m 68 949 l 271 949 l 271 0 l 68 0 l 68 705 l 0 705 l 0 882 q 68 949 68 882 z "},"2":{"ha":610,"x_min":0,"x_max":543,"o":"m 203 692 l 0 692 q 271 963 0 963 q 543 692 543 963 q 258 176 543 475 l 543 176 l 543 0 l 0 0 l 0 176 q 339 692 339 543 q 271 787 339 787 q 203 692 203 787 z "},"3":{"ha":610,"x_min":0,"x_max":543,"o":"m 0 692 q 271 963 0 963 q 543 692 543 963 q 427 475 543 475 q 543 258 543 475 q 271 -14 543 -14 q 0 258 0 -14 l 203 258 q 271 163 203 163 q 339 258 339 163 l 339 326 q 271 387 339 387 l 176 387 l 176 563 l 271 563 q 339 624 339 563 l 339 692 q 271 787 339 787 q 203 692 203 787 l 0 692 z "},"4":{"ha":610,"x_min":0,"x_max":543,"o":"m 0 217 l 31 949 l 235 949 l 203 393 l 298 393 l 298 949 l 502 949 l 502 393 l 543 393 l 543 217 l 502 217 l 502 0 l 298 0 l 298 217 l 0 217 z "},"5":{"ha":610,"x_min":0,"x_max":542,"o":"m 542 949 l 542 773 l 231 773 l 220 621 q 271 624 244 624 q 542 353 542 624 l 542 258 q 271 -14 542 -14 q 0 237 9 -14 l 203 237 l 203 231 q 271 163 203 163 q 338 231 338 163 l 338 380 q 271 448 338 448 q 204 393 212 448 l 203 373 l 1 373 l 1 374 l 0 373 q 5 422 1 399 l 40 949 l 542 949 z "},"6":{"ha":610,"x_min":0,"x_max":543,"o":"m 543 258 q 271 -14 543 -14 q 0 258 0 -14 l 0 692 q 271 963 0 963 q 543 692 543 963 l 543 678 l 339 678 l 339 719 q 271 787 339 787 q 203 719 203 787 l 203 536 q 339 583 203 583 q 543 393 543 583 l 543 258 m 203 231 q 271 163 203 163 q 339 231 339 163 l 339 339 q 271 393 339 393 q 203 346 203 393 l 203 231 z "},"7":{"ha":610,"x_min":0,"x_max":563,"o":"m 0 949 l 0 773 l 289 773 l 0 0 l 224 0 l 563 949 l 0 949 z "},"8":{"ha":610,"x_min":0,"x_max":543,"o":"m 0 692 q 271 963 0 963 q 543 692 543 963 q 420 475 543 475 q 543 258 543 475 q 271 -14 543 -14 q 0 258 0 -14 q 122 475 0 475 q 0 692 0 475 m 271 387 q 203 319 203 387 l 203 231 q 271 163 203 163 q 339 231 339 163 l 339 319 q 271 387 339 387 m 271 787 q 203 719 203 787 l 203 631 q 271 563 203 563 q 339 631 339 563 l 339 719 q 271 787 339 787 z "},"9":{"ha":610,"x_min":0,"x_max":543,"o":"m 0 692 q 271 963 0 963 q 543 692 543 963 l 543 258 q 271 -14 543 -14 q 0 258 0 -14 l 0 271 l 203 271 l 203 231 q 271 163 203 163 q 339 231 339 163 l 339 414 q 203 366 339 367 q 0 556 0 366 l 0 692 m 339 719 q 271 787 339 787 q 203 719 203 787 l 203 610 q 271 556 203 556 q 339 604 339 556 l 339 719 z "},"\u0000":{"ha":0,"x_min":0,"x_max":0,"o":""}," ":{"ha":203,"x_min":0,"x_max":0,"o":""},"!":{"ha":271,"x_min":0,"x_max":203,"o":"m 203 949 l 203 244 l 0 244 l 0 949 l 203 949 m 203 176 l 203 0 l 0 0 l 0 176 l 203 176 z "},"\"":{"ha":475,"x_min":0,"x_max":407,"o":"m 0 949 l 203 949 l 166 678 l 31 678 l 0 949 m 203 949 l 407 949 l 370 678 l 234 678 l 203 949 z "},"#":{"ha":678,"x_min":0,"x_max":610,"o":"m 68 339 l 68 610 l 0 610 l 0 787 l 68 787 l 68 949 l 271 949 l 271 787 l 339 787 l 339 949 l 543 949 l 543 787 l 610 787 l 610 610 l 543 610 l 543 339 l 610 339 l 610 163 l 543 163 l 543 0 l 339 0 l 339 163 l 271 163 l 271 0 l 68 0 l 68 163 l 0 163 l 0 339 l 68 339 m 271 610 l 271 339 l 339 339 l 339 610 l 271 610 z "},"$":{"ha":610,"x_min":0,"x_max":543,"o":"m 203 958 l 203 1044 l 339 1044 l 339 958 q 543 692 543 926 l 339 692 q 294 790 346 770 q 205 761 243 810 q 339 543 157 651 q 428 475 390 509 q 543 258 543 373 q 339 -9 543 23 l 339 -95 l 203 -95 l 203 -9 q 0 258 0 23 l 203 258 q 248 160 197 180 q 338 189 300 140 q 203 407 386 298 q 115 475 153 441 q 0 692 0 576 q 203 958 0 926 z "},"%":{"ha":610,"x_min":0,"x_max":543,"o":"m 68 0 l 271 949 l 475 949 l 271 0 l 68 0 m 203 1017 l 203 814 l 0 814 l 0 1017 l 203 1017 m 543 136 l 543 -68 l 339 -68 l 339 136 l 543 136 z "},"&":{"ha":678,"x_min":0,"x_max":610,"o":"m 339 387 l 271 387 q 203 326 203 387 l 203 258 q 271 163 203 163 q 339 258 339 163 l 339 387 m 441 27 q 271 -14 376 -14 q 0 258 0 -14 q 109 475 0 475 q 0 692 0 475 q 271 963 0 963 q 543 692 543 963 l 339 692 q 271 787 339 787 q 203 692 203 787 l 203 624 q 271 563 203 563 l 339 563 l 339 610 l 543 610 l 543 563 l 610 563 l 610 387 l 543 387 l 543 258 q 610 163 543 163 l 610 -14 q 441 27 505 -14 z "},"'":{"ha":271,"x_min":0,"x_max":203,"o":"m 0 949 l 203 949 l 166 678 l 31 678 l 0 949 z "},"(":{"ha":407,"x_min":0,"x_max":339,"o":"m 0 68 q 339 -203 0 -203 l 339 -27 q 203 41 203 -27 l 203 909 q 339 977 203 977 l 339 1153 q 0 882 0 1153 l 0 68 z "},")":{"ha":407,"x_min":0,"x_max":339,"o":"m 339 68 q 0 -203 339 -203 l 0 -27 q 136 41 136 -27 l 136 909 q 0 977 136 977 l 0 1153 q 339 882 339 1153 l 339 68 z "},"*":{"ha":678,"x_min":-14,"x_max":617,"o":"m 200 821 l 200 949 l 404 949 l 404 821 l 515 885 l 617 709 l 505 644 l 617 580 l 515 404 l 404 468 l 404 339 l 200 339 l 200 468 l 88 404 l -14 580 l 98 644 l -14 709 l 88 885 l 200 821 z "},"+":{"ha":610,"x_min":0,"x_max":475,"o":"m 136 384 l 0 384 l 0 560 l 136 560 l 136 709 l 339 709 l 339 560 l 475 560 l 475 384 l 339 384 l 339 235 l 136 235 l 136 384 z "},",":{"ha":271,"x_min":0,"x_max":203,"o":"m 0 0 l 0 176 l 203 176 l 203 68 q 0 -136 203 -136 l 0 -68 q 68 0 68 -68 l 0 0 z "},"-":{"ha":610,"x_min":0,"x_max":475,"o":"m 0 384 l 0 560 l 475 560 l 475 384 l 0 384 z "},".":{"ha":271,"x_min":0,"x_max":203,"o":"m 0 0 l 0 176 l 203 176 l 203 0 l 0 0 z "},"/":{"ha":475,"x_min":-68,"x_max":475,"o":"m -68 -136 l 271 1085 l 475 1085 l 136 -136 l -68 -136 z "},":":{"ha":271,"x_min":0,"x_max":203,"o":"m 203 732 l 203 556 l 0 556 l 0 732 l 203 732 m 0 217 l 0 393 l 203 393 l 203 217 l 0 217 z "},";":{"ha":271,"x_min":0,"x_max":203,"o":"m 203 732 l 203 556 l 0 556 l 0 732 l 203 732 m 0 217 l 0 393 l 203 393 l 203 285 q 0 81 203 81 l 0 149 q 68 217 68 149 l 0 217 z "},"<":{"ha":543,"x_min":0,"x_max":475,"o":"m 0 477 l 475 793 l 475 552 l 339 475 l 475 393 l 475 160 l 0 477 z "},"=":{"ha":610,"x_min":0,"x_max":543,"o":"m 543 699 l 543 522 l 0 522 l 0 699 l 543 699 m 0 251 l 0 427 l 543 427 l 543 251 l 0 251 z "},">":{"ha":543,"x_min":0,"x_max":475,"o":"m 0 160 l 0 393 l 136 475 l 0 552 l 0 793 l 475 477 l 0 160 z "},"?":{"ha":610,"x_min":0,"x_max":543,"o":"m 0 610 l 0 692 q 271 963 0 963 q 543 692 543 963 q 441 441 543 543 q 339 244 339 339 l 136 244 q 237 509 136 407 q 339 692 339 610 q 271 787 339 787 q 203 692 203 787 l 203 610 l 0 610 m 339 176 l 339 0 l 136 0 l 136 176 l 339 176 z "},"@":{"ha":1017,"x_min":0,"x_max":949,"o":"m 0 475 q 475 0 0 0 l 949 0 l 949 136 l 475 136 q 136 475 136 136 q 475 814 136 814 q 814 475 814 814 l 814 339 l 746 339 l 746 475 q 475 746 746 746 q 203 475 203 746 q 475 203 203 203 l 949 203 l 949 475 q 475 949 949 949 q 0 475 0 949 m 475 339 q 339 475 339 339 q 475 610 339 610 q 610 475 610 610 l 610 339 l 475 339 z "},"A":{"ha":543,"x_min":-47,"x_max":522,"o":"m 171 102 l 156 0 l -47 0 l 136 949 l 339 949 l 522 0 l 319 0 l 304 102 l 171 102 m 280 278 l 239 576 l 196 278 l 280 278 z "},"B":{"ha":610,"x_min":0,"x_max":543,"o":"m 271 949 q 543 678 543 949 q 407 475 543 475 q 543 271 543 475 q 271 0 543 0 l 0 0 l 0 949 l 271 949 m 203 387 l 203 176 l 271 176 q 339 244 339 176 l 339 319 q 271 387 339 387 l 203 387 m 203 773 l 203 563 l 271 563 q 339 631 339 563 l 339 705 q 271 773 339 773 l 203 773 z "},"C":{"ha":610,"x_min":0,"x_max":543,"o":"m 0 692 q 271 963 0 963 q 543 692 543 963 l 543 624 l 339 624 l 339 719 q 271 787 339 787 q 203 719 203 787 l 203 231 q 271 163 203 163 q 339 231 339 163 l 339 326 l 543 326 l 543 258 q 271 -14 543 -14 q 0 258 0 -14 l 0 692 z "},"D":{"ha":610,"x_min":0,"x_max":543,"o":"m 271 949 q 543 678 543 949 l 543 271 q 271 0 543 0 l 0 0 l 0 949 l 271 949 m 203 176 l 271 176 q 339 244 339 176 l 339 705 q 271 773 339 773 l 203 773 l 203 176 z "},"E":{"ha":543,"x_min":0,"x_max":475,"o":"m 475 949 l 475 773 l 203 773 l 203 563 l 407 563 l 407 387 l 203 387 l 203 176 l 475 176 l 475 0 l 0 0 l 0 949 l 475 949 z "},"F":{"ha":543,"x_min":0,"x_max":475,"o":"m 475 949 l 475 773 l 203 773 l 203 563 l 407 563 l 407 387 l 203 387 l 203 0 l 0 0 l 0 949 l 475 949 z "},"G":{"ha":610,"x_min":0,"x_max":543,"o":"m 271 963 q 543 692 543 963 l 339 692 l 339 719 q 271 787 339 787 q 203 719 203 787 l 203 231 q 271 163 203 163 q 339 231 339 163 l 339 387 l 278 387 l 278 563 l 543 563 l 543 258 q 271 -14 543 -14 q 0 258 0 -14 l 0 692 q 271 963 0 963 z "},"H":{"ha":610,"x_min":0,"x_max":543,"o":"m 0 949 l 203 949 l 203 563 l 339 563 l 339 949 l 543 949 l 543 0 l 339 0 l 339 387 l 203 387 l 203 0 l 0 0 l 0 949 z "},"I":{"ha":271,"x_min":0,"x_max":203,"o":"m 0 949 l 203 949 l 203 0 l 0 0 l 0 949 z "},"J":{"ha":407,"x_min":0,"x_max":339,"o":"m 0 0 l 0 176 l 68 176 q 136 244 136 176 l 136 949 l 339 949 l 339 271 q 68 0 339 0 l 0 0 z "},"K":{"ha":610,"x_min":0,"x_max":556,"o":"m 203 0 l 0 0 l 0 949 l 203 949 l 203 671 l 339 949 l 556 949 l 339 522 l 556 0 l 339 0 l 221 324 l 203 292 l 203 0 z "},"L":{"ha":475,"x_min":0,"x_max":407,"o":"m 0 949 l 203 949 l 203 176 l 407 176 l 407 0 l 0 0 l 0 949 z "},"M":{"ha":746,"x_min":0,"x_max":678,"o":"m 296 136 l 203 427 l 203 0 l 0 0 l 0 949 l 203 949 l 339 495 l 475 949 l 678 949 l 678 0 l 475 0 l 475 427 l 382 136 l 296 136 z "},"N":{"ha":610,"x_min":0,"x_max":543,"o":"m 203 0 l 0 0 l 0 949 l 203 949 l 339 475 l 339 949 l 543 949 l 543 0 l 339 0 l 203 475 l 203 0 z "},"O":{"ha":610,"x_min":0,"x_max":543,"o":"m 0 692 q 271 963 0 963 q 543 692 543 963 l 543 258 q 271 -14 543 -14 q 0 258 0 -14 l 0 692 m 203 231 q 271 163 203 163 q 339 231 339 163 l 339 719 q 271 787 339 787 q 203 719 203 787 l 203 231 z "},"P":{"ha":610,"x_min":0,"x_max":543,"o":"m 271 949 q 543 705 543 949 l 543 631 q 271 387 543 387 l 203 387 l 203 0 l 0 0 l 0 949 l 271 949 m 203 563 l 271 563 q 339 631 339 563 l 339 705 q 271 773 339 773 l 203 773 l 203 563 z "},"Q":{"ha":610,"x_min":0,"x_max":543,"o":"m 0 692 q 271 963 0 963 q 543 692 543 963 l 543 258 q 271 -14 543 -14 q 0 258 0 -14 l 0 692 m 203 231 q 271 163 203 163 q 339 231 339 163 l 339 719 q 271 787 339 787 q 203 719 203 787 l 203 231 m 398 175 l 528 3 l 380 -95 l 251 77 l 398 175 z "},"R":{"ha":610,"x_min":0,"x_max":563,"o":"m 203 387 l 203 0 l 0 0 l 0 949 l 271 949 q 543 705 543 949 l 543 631 q 499 475 543 533 q 543 319 543 416 l 543 102 q 563 0 543 47 l 359 0 q 339 102 339 47 l 339 319 q 271 387 339 387 l 203 387 m 271 563 q 339 631 339 563 l 339 705 q 271 773 339 773 l 203 773 l 203 563 l 271 563 z "},"S":{"ha":610,"x_min":0,"x_max":543,"o":"m 115 475 q 0 692 0 576 q 271 963 0 963 q 543 692 543 963 l 339 692 q 294 790 346 770 q 205 761 243 810 q 339 543 157 651 q 428 475 390 509 q 543 258 543 373 q 271 -14 543 -14 q 0 258 0 -14 l 203 258 q 248 160 197 180 q 338 189 300 140 q 203 407 386 298 q 115 475 153 441 z "},"T":{"ha":610,"x_min":0,"x_max":543,"o":"m 0 949 l 543 949 l 543 773 l 373 773 l 373 0 l 170 0 l 170 773 l 0 773 l 0 949 z "},"U":{"ha":610,"x_min":0,"x_max":543,"o":"m 0 949 l 203 949 l 203 231 q 271 163 203 163 q 339 231 339 163 l 339 949 l 543 949 l 543 258 q 271 -14 543 -14 q 0 258 0 -14 l 0 949 z "},"V":{"ha":543,"x_min":-47,"x_max":522,"o":"m 156 949 l 239 373 l 319 949 l 522 949 l 339 0 l 136 0 l -47 949 l 156 949 z "},"W":{"ha":746,"x_min":-47,"x_max":726,"o":"m 156 949 l 203 468 l 242 949 l 433 949 l 475 468 l 522 949 l 726 949 l 610 0 l 407 0 l 339 441 l 271 0 l 68 0 l -47 949 l 156 949 z "},"X":{"ha":610,"x_min":-14,"x_max":556,"o":"m 271 651 l 353 949 l 556 949 l 407 475 l 556 0 l 353 0 l 271 298 l 190 0 l -14 0 l 136 475 l -14 949 l 190 949 l 271 651 z "},"Y":{"ha":610,"x_min":-14,"x_max":556,"o":"m 170 377 l -14 949 l 190 949 l 271 651 l 353 949 l 556 949 l 373 377 l 373 0 l 170 0 l 170 377 z "},"Z":{"ha":610,"x_min":0,"x_max":543,"o":"m 0 773 l 0 949 l 543 949 l 274 176 l 543 176 l 543 0 l 0 0 l 269 773 l 0 773 z "},"[":{"ha":407,"x_min":0,"x_max":339,"o":"m 339 977 l 203 977 l 203 -27 l 339 -27 l 339 -203 l 0 -203 l 0 1153 l 339 1153 l 339 977 z "},"\\":{"ha":475,"x_min":-68,"x_max":475,"o":"m 136 1085 l 475 -136 l 271 -136 l -68 1085 l 136 1085 z "},"]":{"ha":407,"x_min":0,"x_max":339,"o":"m 0 1153 l 339 1153 l 339 -203 l 0 -203 l 0 -27 l 136 -27 l 136 977 l 0 977 l 0 1153 z "},"^":{"ha":475,"x_min":0,"x_max":407,"o":"m 0 610 l 203 949 l 407 610 l 258 610 l 203 679 l 149 610 l 0 610 z "},"_":{"ha":678,"x_min":0,"x_max":610,"o":"m 0 0 l 0 176 l 610 176 l 610 0 l 0 0 z "},"`":{"ha":339,"x_min":0,"x_max":271,"o":"m 0 949 l 203 949 l 271 746 l 136 746 l 0 949 z "},"a":{"ha":610,"x_min":0,"x_max":543,"o":"m 271 271 q 203 217 203 271 q 271 163 203 163 q 339 210 339 163 l 339 271 l 271 271 m 339 407 l 339 448 q 271 515 339 515 q 207 475 219 515 l 3 475 q 271 692 28 692 q 543 420 543 692 l 543 0 l 339 0 l 339 27 q 203 -14 339 -14 q 0 156 0 -14 l 0 237 q 203 407 0 407 l 339 407 z "},"b":{"ha":610,"x_min":0,"x_max":543,"o":"m 203 468 l 203 210 q 271 163 203 163 q 339 217 339 163 l 339 461 q 271 515 339 515 q 203 468 203 515 m 543 156 q 339 -14 543 -14 q 203 34 203 -14 l 203 0 l 0 0 l 0 949 l 203 950 l 203 644 q 339 692 203 691 q 543 522 543 692 l 543 156 z "},"c":{"ha":610,"x_min":0,"x_max":543,"o":"m 339 448 q 271 515 339 515 q 203 448 203 515 l 203 231 q 271 163 203 163 q 339 231 339 163 l 339 271 l 543 271 l 543 258 q 271 -14 543 -14 q 0 258 0 -14 l 0 420 q 271 692 0 692 q 543 420 543 692 l 543 407 l 339 407 l 339 448 z "},"d":{"ha":610,"x_min":0,"x_max":543,"o":"m 339 644 l 339 950 l 543 949 l 543 0 l 339 0 l 339 34 q 203 -14 339 -14 q 0 156 0 -14 l 0 522 q 203 692 0 692 q 339 644 339 691 m 203 217 q 271 163 203 163 q 339 210 339 163 l 339 468 q 271 515 339 515 q 203 461 203 515 l 203 217 z "},"e":{"ha":610,"x_min":0,"x_max":543,"o":"m 339 407 l 339 448 q 271 515 339 515 q 203 448 203 515 l 203 407 l 339 407 m 203 271 l 203 231 q 271 163 203 163 q 336 203 323 163 l 540 203 q 271 -14 514 -14 q 0 258 0 -14 l 0 420 q 271 692 0 692 q 543 420 543 692 l 543 271 l 203 271 z "},"f":{"ha":407,"x_min":-68,"x_max":339,"o":"m 339 963 l 339 787 l 271 787 q 203 719 203 787 l 203 678 l 339 678 l 339 502 l 203 502 l 203 0 l 0 0 l 0 502 l -68 502 l -68 678 l 0 678 l 0 692 q 271 963 0 963 l 339 963 z "},"g":{"ha":610,"x_min":0,"x_max":543,"o":"m 203 218 q 271 163 203 163 q 339 211 339 163 l 339 469 q 271 516 339 516 q 203 462 203 516 l 203 218 m 339 35 q 203 -13 339 -12 q 0 157 0 -13 l 0 523 q 203 692 0 692 q 339 645 339 692 l 339 679 l 543 679 l 543 0 q 271 -271 543 -271 q 3 -54 28 -271 l 207 -54 q 271 -95 219 -95 q 339 -27 339 -95 l 339 35 z "},"h":{"ha":610,"x_min":0,"x_max":543,"o":"m 203 468 l 203 0 l 0 0 l 0 949 l 203 950 l 203 644 q 339 692 203 691 q 543 522 543 692 l 543 0 l 339 0 l 339 461 q 271 515 339 515 q 203 468 203 515 z "},"i":{"ha":271,"x_min":0,"x_max":203,"o":"m 203 678 l 203 0 l 0 0 l 0 678 l 203 678 m 203 922 l 203 746 l 0 746 l 0 922 l 203 922 z "},"j":{"ha":271,"x_min":-68,"x_max":203,"o":"m 203 922 l 203 746 l 0 746 l 0 922 l 203 922 m 0 678 l 203 678 l 203 0 q -68 -271 203 -271 l -68 -95 q 0 -27 0 -95 l 0 678 z "},"k":{"ha":610,"x_min":0,"x_max":563,"o":"m 203 0 l 0 0 l 0 949 l 203 949 l 203 461 l 353 678 l 563 678 l 346 359 l 563 0 l 346 0 l 228 216 l 203 183 l 203 0 z "},"l":{"ha":271,"x_min":0,"x_max":203,"o":"m 0 949 l 203 949 l 203 0 l 0 0 l 0 949 z "},"m":{"ha":949,"x_min":0,"x_max":882,"o":"m 203 468 l 203 0 l 0 0 l 0 678 l 203 678 l 203 644 q 339 692 203 691 q 468 665 419 692 q 610 692 526 692 q 882 420 882 692 l 882 0 l 678 0 l 678 448 q 610 515 678 515 q 543 448 543 515 l 543 0 l 339 0 l 339 461 q 271 515 339 515 q 203 468 203 515 z "},"n":{"ha":610,"x_min":0,"x_max":543,"o":"m 203 468 l 203 0 l 0 0 l 0 678 l 203 678 l 203 644 q 339 692 203 691 q 543 522 543 692 l 543 0 l 339 0 l 339 461 q 271 515 339 515 q 203 468 203 515 z "},"o":{"ha":610,"x_min":0,"x_max":543,"o":"m 203 231 q 271 163 203 163 q 339 231 339 163 l 339 448 q 271 515 339 515 q 203 448 203 515 l 203 231 m 271 692 q 543 420 543 692 l 543 258 q 271 -14 543 -14 q 0 258 0 -14 l 0 420 q 271 692 0 692 z "},"p":{"ha":610,"x_min":0,"x_max":543,"o":"m 203 35 l 203 -271 l 0 -271 l 0 679 l 203 679 l 203 645 q 339 692 203 692 q 543 523 543 692 l 543 157 q 339 -13 543 -13 q 203 35 203 -12 m 339 462 q 271 516 339 516 q 203 469 203 516 l 203 211 q 271 163 203 163 q 339 218 339 163 l 339 462 z "},"q":{"ha":610,"x_min":0,"x_max":543,"o":"m 339 211 l 339 469 q 271 516 339 516 q 203 462 203 516 l 203 218 q 271 163 203 163 q 339 211 339 163 m 0 523 q 203 692 0 692 q 339 645 339 692 l 339 679 l 543 679 l 543 -271 l 339 -271 l 339 35 q 203 -13 339 -12 q 0 157 0 -13 l 0 523 z "},"r":{"ha":407,"x_min":0,"x_max":339,"o":"m 203 468 l 203 0 l 0 0 l 0 678 l 203 678 l 203 644 q 339 692 203 691 l 339 515 l 271 515 q 203 468 203 515 z "},"s":{"ha":592,"x_min":0,"x_max":515,"o":"m 0 490 q 258 699 0 699 q 515 475 515 699 l 322 475 q 258 535 322 536 q 193 475 193 535 q 322 407 193 442 q 515 188 515 339 q 258 -20 515 -20 q 0 203 0 -20 l 193 203 q 258 143 193 142 q 322 203 322 143 q 193 271 322 236 q 0 490 0 339 z "},"t":{"ha":407,"x_min":-14,"x_max":339,"o":"m 27 678 l 27 949 l 231 949 l 231 678 l 339 678 l 339 502 l 231 502 l 231 244 q 298 176 231 176 l 339 176 l 339 0 l 298 0 q 27 271 27 0 l 27 502 l -14 502 l -14 678 l 27 678 z "},"u":{"ha":610,"x_min":0,"x_max":543,"o":"m 339 210 l 339 678 l 543 678 l 543 0 l 339 0 l 339 34 q 203 -14 339 -13 q 0 156 0 -14 l 0 678 l 203 678 l 203 217 q 271 163 203 163 q 339 210 339 163 z "},"v":{"ha":543,"x_min":-47,"x_max":522,"o":"m 156 678 l 239 273 l 319 678 l 522 678 l 339 0 l 136 0 l -47 678 l 156 678 z "},"w":{"ha":746,"x_min":-45,"x_max":728,"o":"m 159 678 l 203 332 l 245 678 l 436 678 l 475 332 l 525 678 l 728 678 l 597 0 l 393 0 l 339 296 l 285 0 l 81 0 l -45 678 l 159 678 z "},"x":{"ha":543,"x_min":-34,"x_max":509,"o":"m 237 455 l 305 678 l 509 678 l 373 339 l 509 0 l 305 0 l 237 224 l 170 0 l -34 0 l 102 339 l -34 678 l 170 678 l 237 455 z "},"y":{"ha":610,"x_min":0,"x_max":543,"o":"m 339 678 l 543 678 l 543 0 q 271 -271 543 -271 q 3 -54 28 -271 l 207 -54 q 271 -95 219 -95 q 339 -27 339 -95 l 339 35 q 203 -13 339 -12 q 0 157 0 -13 l 0 678 l 203 678 l 203 218 q 271 163 203 163 q 339 211 339 163 l 339 678 z "},"z":{"ha":610,"x_min":0,"x_max":543,"o":"m 0 502 l 0 676 l 543 676 l 292 176 l 543 176 l 543 0 l 0 0 l 251 503 l 0 502 z "},"{":{"ha":475,"x_min":0,"x_max":407,"o":"m 68 882 q 407 1153 68 1153 l 407 977 q 271 909 271 977 l 271 658 q 221 475 271 541 q 271 292 271 408 l 271 41 q 407 -27 271 -27 l 407 -203 q 68 68 68 -203 l 68 319 q 0 387 68 387 l 0 563 q 68 631 68 563 l 68 882 z "},"|":{"ha":339,"x_min":0,"x_max":203,"o":"m 203 1153 l 203 -203 l 0 -203 l 0 1153 l 203 1153 z "},"}":{"ha":475,"x_min":0,"x_max":407,"o":"m 339 631 q 407 563 339 563 l 407 387 q 339 319 339 387 l 339 68 q 0 -203 339 -203 l 0 -27 q 136 41 136 -27 l 136 292 q 186 475 136 408 q 136 658 136 541 l 136 909 q 0 977 136 977 l 0 1153 q 339 882 339 1153 l 339 631 z "},"¡":{"ha":271,"x_min":0,"x_max":203,"o":"m 0 -255 l 0 450 l 203 450 l 203 -255 l 0 -255 m 0 518 l 0 694 l 203 694 l 203 518 l 0 518 z "},"¢":{"ha":610,"x_min":0,"x_max":543,"o":"m 203 687 l 203 773 l 339 773 l 339 687 q 543 420 543 655 l 543 407 l 339 407 l 339 448 q 271 515 339 515 q 203 448 203 515 l 203 231 q 271 163 203 163 q 339 231 339 163 l 339 271 l 543 271 l 543 258 q 339 -9 543 23 l 339 -95 l 203 -95 l 203 -9 q 0 258 0 23 l 0 420 q 203 687 0 655 z "},"£":{"ha":610,"x_min":0,"x_max":543,"o":"m 27 610 q 27 692 24 652 q 285 963 27 963 q 543 692 543 963 l 339 692 q 285 787 339 787 q 231 692 231 787 q 233 610 227 657 l 488 610 l 475 475 l 261 475 q 281 407 270 442 l 488 407 l 475 271 l 329 271 q 366 176 346 226 l 543 176 l 543 0 l 0 0 l 0 176 l 142 176 q 104 271 121 225 l 0 271 l 0 407 l 61 407 q 45 475 52 441 l 0 475 l 0 610 l 27 610 z "},"¤":{"ha":814,"x_min":0,"x_max":678,"o":"m 339 570 q 291 550 311 570 q 271 475 271 530 q 291 400 271 420 q 339 380 311 380 q 387 400 367 380 q 407 475 407 420 q 387 550 407 530 q 339 570 367 570 m 452 723 l 543 814 l 678 678 l 587 587 q 610 475 610 536 q 587 362 610 414 l 678 271 l 543 136 l 452 227 q 339 203 400 203 q 227 227 278 203 l 136 136 l 0 271 l 91 362 q 68 475 68 414 q 91 587 68 536 l 0 678 l 136 814 l 227 723 q 339 746 278 746 q 452 723 400 746 z "},"¥":{"ha":610,"x_min":-14,"x_max":556,"o":"m 373 68 l 373 0 l 170 0 l 170 68 l 68 68 l 68 203 l 170 203 l 170 271 l 68 271 l 68 407 l 160 407 l -14 949 l 190 949 l 271 651 l 353 949 l 556 949 l 382 407 l 475 407 l 475 271 l 373 271 l 373 203 l 475 203 l 475 68 l 373 68 z "},"¦":{"ha":688,"x_min":0,"x_max":203,"o":"m 203 1153 l 203 543 l 0 543 l 0 1153 l 203 1153 m 0 -203 l 0 407 l 203 407 l 203 -203 l 0 -203 z "},"§":{"ha":475,"x_min":0,"x_max":361,"o":"m 0 500 q 0 452 0 475 q 136 271 0 362 q 226 136 271 181 q 136 181 159 87 l 0 181 q 181 0 0 0 q 361 181 361 0 q 269 331 361 256 q 361 450 344 361 q 361 498 361 475 q 226 678 361 588 q 136 814 90 768 q 226 768 203 857 l 361 768 q 181 949 361 949 q 0 768 0 949 q 94 618 0 694 q 0 500 18 589 m 136 498 q 226 452 226 543 q 136 498 136 407 z "},"":{"ha":728,"x_min":0,"x_max":0,"o":""},"":{"ha":733,"x_min":0,"x_max":0,"o":""},"~":{"ha":610,"x_min":0,"x_max":475,"o":"m 0 563 q 237 563 136 631 q 475 563 339 495 l 475 387 q 237 387 339 319 q 0 387 136 454 l 0 563 z "},"¨":{"ha":407,"x_min":0,"x_max":339,"o":"m 136 949 l 136 814 l 0 814 l 0 949 l 136 949 m 339 949 l 339 814 l 203 814 l 203 949 l 339 949 z "},"©":{"ha":1017,"x_min":0,"x_max":949,"o":"m 475 949 q 810 810 671 949 q 949 475 949 671 q 810 139 949 278 q 475 0 671 0 q 139 139 278 0 q 0 475 0 278 q 139 810 0 671 q 475 949 278 949 m 475 814 q 235 714 334 814 q 136 475 136 615 q 235 235 136 334 q 475 136 334 136 q 714 235 615 136 q 814 475 814 334 q 714 714 814 615 q 475 814 615 814 m 593 407 l 738 407 q 667 283 721 337 q 475 203 587 203 q 283 283 362 203 q 203 475 203 362 q 283 667 203 587 q 475 746 362 746 q 667 667 587 746 q 738 543 721 612 l 593 543 q 571 571 584 557 q 475 610 531 610 q 379 571 418 610 q 339 475 339 531 q 379 379 339 418 q 475 339 418 339 q 571 379 531 339 q 593 407 584 392 z "},"®":{"ha":1017,"x_min":0,"x_max":949,"o":"m 475 949 q 810 810 671 949 q 949 475 949 671 q 810 139 949 278 q 475 0 671 0 q 139 139 278 0 q 0 475 0 278 q 139 810 0 671 q 475 949 278 949 m 475 814 q 235 714 334 814 q 136 475 136 615 q 235 235 136 334 q 475 136 334 136 q 714 235 615 136 q 814 475 814 334 q 714 714 814 615 q 475 814 615 814 m 374 435 l 374 251 l 277 251 l 277 705 l 536 705 q 666 588 666 705 l 666 552 q 646 477 666 506 q 666 404 666 450 l 666 300 q 676 251 666 273 l 578 251 q 569 300 569 273 l 569 404 q 536 435 569 435 l 374 435 m 536 520 q 569 552 569 520 l 569 588 q 536 621 569 621 l 374 621 l 374 520 l 536 520 z "},"¯":{"ha":678,"x_min":0,"x_max":610,"o":"m 0 773 l 0 949 l 610 949 l 610 773 l 0 773 z "},"°":{"ha":407,"x_min":0,"x_max":339,"o":"m 170 949 q 290 900 240 949 q 339 780 339 850 q 290 660 339 709 q 170 610 240 610 q 50 660 99 610 q 0 780 0 709 q 50 900 0 850 q 170 949 99 949 m 170 848 q 122 828 142 848 q 102 780 102 808 q 122 732 102 752 q 170 712 142 712 q 217 732 197 712 q 237 780 237 752 q 217 828 237 808 q 170 848 197 848 z "},"´":{"ha":339,"x_min":0,"x_max":271,"o":"m 136 746 l 0 746 l 68 949 l 271 949 l 136 746 z "},"µ":{"ha":610,"x_min":0,"x_max":543,"o":"m 203 211 q 271 163 203 163 q 339 218 339 163 l 339 679 l 543 679 l 543 157 q 339 -13 543 -13 q 203 35 203 -12 l 203 -271 l 0 -271 l 0 679 l 203 679 l 203 211 z "},"¶":{"ha":678,"x_min":0,"x_max":610,"o":"m 407 814 l 407 0 l 271 0 l 271 387 l 203 387 q 0 583 0 387 l 0 746 q 203 949 0 949 l 610 949 l 610 0 l 475 0 l 475 814 l 407 814 z "},"·":{"ha":203,"x_min":0,"x_max":173,"o":"m 0 412 l 0 562 l 173 562 l 173 412 l 0 412 z "},"¸":{"ha":271,"x_min":0,"x_max":203,"o":"m 203 68 l 136 -68 q 136 -203 203 -136 l 0 -203 q 0 -68 68 -136 l 68 68 l 203 68 z "},"¿":{"ha":610,"x_min":0,"x_max":543,"o":"m 543 84 l 543 3 q 271 -269 543 -269 q 0 3 0 -269 q 102 254 0 152 q 203 450 203 355 l 407 450 q 305 186 407 288 q 203 3 203 84 q 271 -92 203 -92 q 339 3 339 -92 l 339 84 l 543 84 m 203 518 l 203 694 l 407 694 l 407 518 l 203 518 z "},"À":{"ha":543,"x_min":-47,"x_max":522,"o":"m 171 102 l 156 0 l -47 0 l 136 949 l 339 949 l 522 0 l 319 0 l 304 102 l 171 102 m 280 278 l 239 576 l 196 278 l 280 278 m 56 1227 l 260 1227 l 328 1024 l 192 1024 l 56 1227 z "},"Á":{"ha":543,"x_min":-47,"x_max":522,"o":"m 171 102 l 156 0 l -47 0 l 136 949 l 339 949 l 522 0 l 319 0 l 304 102 l 171 102 m 280 278 l 239 576 l 196 278 l 280 278 m 283 1024 l 147 1024 l 215 1227 l 418 1227 l 283 1024 z "},"Â":{"ha":543,"x_min":-47,"x_max":522,"o":"m 171 102 l 156 0 l -47 0 l 136 949 l 339 949 l 522 0 l 319 0 l 304 102 l 171 102 m 280 278 l 239 576 l 196 278 l 280 278 m 68 982 l 237 1153 l 408 982 l 283 982 l 237 1017 l 193 982 l 68 982 z "},"Ã":{"ha":543,"x_min":-47,"x_max":522,"o":"m 171 102 l 156 0 l -47 0 l 136 949 l 339 949 l 522 0 l 319 0 l 304 102 l 171 102 m 280 278 l 239 576 l 196 278 l 280 278 m 63 1128 q 238 1128 163 1178 q 414 1128 313 1078 l 414 998 q 238 998 313 947 q 63 998 163 1048 l 63 1128 z "},"Ä":{"ha":543,"x_min":-47,"x_max":522,"o":"m 171 102 l 156 0 l -47 0 l 136 949 l 339 949 l 522 0 l 319 0 l 304 102 l 171 102 m 280 278 l 239 576 l 196 278 l 280 278 m 203 1153 l 203 1017 l 68 1017 l 68 1153 l 203 1153 m 407 1153 l 407 1017 l 271 1017 l 271 1153 l 407 1153 z "},"Å":{"ha":543,"x_min":-47,"x_max":522,"o":"m 171 102 l 156 0 l -47 0 l 136 949 l 339 949 l 522 0 l 319 0 l 304 102 l 171 102 m 280 278 l 239 576 l 196 278 l 280 278 m 238 1160 q 310 1130 280 1160 q 339 1059 339 1101 q 310 987 339 1017 q 238 958 280 958 q 166 987 196 958 q 137 1059 137 1017 q 166 1130 137 1101 q 238 1160 196 1160 m 238 1099 q 209 1087 221 1099 q 197 1059 197 1076 q 209 1030 197 1042 q 238 1018 221 1018 q 267 1030 255 1018 q 279 1059 279 1042 q 267 1087 279 1076 q 238 1099 255 1099 z "},"Æ":{"ha":882,"x_min":-47,"x_max":814,"o":"m 319 0 l 324 102 l 191 102 l 156 0 l -47 0 l 316 949 l 814 949 l 814 773 l 543 773 l 543 563 l 746 563 l 746 387 l 543 387 l 543 176 l 814 176 l 814 0 l 319 0 m 339 395 l 339 548 l 249 278 l 333 278 l 339 395 z "},"Ç":{"ha":610,"x_min":0,"x_max":543,"o":"m 199 -8 q 0 258 0 25 l 0 692 q 271 963 0 963 q 543 692 543 963 l 543 624 l 339 624 l 339 719 q 271 787 339 787 q 203 719 203 787 l 203 231 q 271 163 203 163 q 339 231 339 163 l 339 326 l 543 326 l 543 258 q 334 -9 543 20 l 305 -68 q 305 -203 373 -136 l 170 -203 q 170 -68 237 -136 l 199 -8 z "},"È":{"ha":543,"x_min":0,"x_max":475,"o":"m 475 949 l 475 773 l 203 773 l 203 563 l 407 563 l 407 387 l 203 387 l 203 176 l 475 176 l 475 0 l 0 0 l 0 949 l 475 949 m 56 1227 l 260 1227 l 328 1024 l 192 1024 l 56 1227 z "},"É":{"ha":543,"x_min":0,"x_max":475,"o":"m 475 949 l 475 773 l 203 773 l 203 563 l 407 563 l 407 387 l 203 387 l 203 176 l 475 176 l 475 0 l 0 0 l 0 949 l 475 949 m 283 1024 l 147 1024 l 215 1227 l 418 1227 l 283 1024 z "},"Ê":{"ha":543,"x_min":0,"x_max":475,"o":"m 68 982 l 237 1153 l 408 982 l 283 982 l 237 1017 l 193 982 l 68 982 m 475 949 l 475 773 l 203 773 l 203 563 l 407 563 l 407 387 l 203 387 l 203 176 l 475 176 l 475 0 l 0 0 l 0 949 l 475 949 z "},"Ë":{"ha":543,"x_min":0,"x_max":475,"o":"m 475 949 l 475 773 l 203 773 l 203 563 l 407 563 l 407 387 l 203 387 l 203 176 l 475 176 l 475 0 l 0 0 l 0 949 l 475 949 m 203 1153 l 203 1017 l 68 1017 l 68 1153 l 203 1153 m 407 1153 l 407 1017 l 271 1017 l 271 1153 l 407 1153 z "},"Ì":{"ha":271,"x_min":-79,"x_max":203,"o":"m 0 949 l 203 949 l 203 0 l 0 0 l 0 949 m -79 1227 l 124 1227 l 192 1024 l 56 1024 l -79 1227 z "},"Í":{"ha":271,"x_min":0,"x_max":283,"o":"m 0 949 l 203 949 l 203 0 l 0 0 l 0 949 m 147 1024 l 12 1024 l 79 1227 l 283 1227 l 147 1024 z "},"Î":{"ha":271,"x_min":-68,"x_max":272,"o":"m 0 949 l 203 949 l 203 0 l 0 0 l 0 949 m -68 996 l 102 1166 l 272 996 l 147 996 l 102 1030 l 57 996 l -68 996 z "},"Ï":{"ha":271,"x_min":-68,"x_max":271,"o":"m 0 949 l 203 949 l 203 0 l 0 0 l 0 949 m 68 1153 l 68 1017 l -68 1017 l -68 1153 l 68 1153 m 271 1153 l 271 1017 l 136 1017 l 136 1153 l 271 1153 z "},"Ð":{"ha":678,"x_min":0,"x_max":610,"o":"m 271 393 l 271 176 l 339 176 q 407 244 407 176 l 407 705 q 339 773 407 773 l 271 773 l 271 570 l 339 570 l 339 393 l 271 393 m 68 570 l 68 949 l 339 949 q 610 678 610 949 l 610 271 q 339 0 610 0 l 68 0 l 68 393 l 0 393 l 0 570 l 68 570 z "},"Ñ":{"ha":610,"x_min":0,"x_max":543,"o":"m 203 0 l 0 0 l 0 949 l 203 949 l 339 475 l 339 949 l 543 949 l 543 0 l 339 0 l 203 475 l 203 0 m 97 1128 q 272 1128 197 1178 q 448 1128 347 1078 l 448 998 q 272 998 347 947 q 97 998 197 1048 l 97 1128 z "},"Ò":{"ha":610,"x_min":0,"x_max":543,"o":"m 0 692 q 271 963 0 963 q 543 692 543 963 l 543 258 q 271 -14 543 -14 q 0 258 0 -14 l 0 692 m 203 231 q 271 163 203 163 q 339 231 339 163 l 339 719 q 271 787 339 787 q 203 719 203 787 l 203 231 m 90 1227 l 294 1227 l 361 1024 l 226 1024 l 90 1227 z "},"Ó":{"ha":610,"x_min":0,"x_max":543,"o":"m 0 692 q 271 963 0 963 q 543 692 543 963 l 543 258 q 271 -14 543 -14 q 0 258 0 -14 l 0 692 m 203 231 q 271 163 203 163 q 339 231 339 163 l 339 719 q 271 787 339 787 q 203 719 203 787 l 203 231 m 317 1024 l 181 1024 l 249 1227 l 452 1227 l 317 1024 z "},"Ô":{"ha":610,"x_min":0,"x_max":543,"o":"m 102 982 l 271 1153 l 441 982 l 317 982 l 271 1017 l 227 982 l 102 982 m 0 692 q 271 963 0 963 q 543 692 543 963 l 543 258 q 271 -14 543 -14 q 0 258 0 -14 l 0 692 m 203 231 q 271 163 203 163 q 339 231 339 163 l 339 719 q 271 787 339 787 q 203 719 203 787 l 203 231 z "},"Õ":{"ha":610,"x_min":0,"x_max":543,"o":"m 97 1128 q 272 1128 197 1178 q 448 1128 347 1078 l 448 998 q 272 998 347 947 q 97 998 197 1048 l 97 1128 m 0 692 q 271 963 0 963 q 543 692 543 963 l 543 258 q 271 -14 543 -14 q 0 258 0 -14 l 0 692 m 203 231 q 271 163 203 163 q 339 231 339 163 l 339 719 q 271 787 339 787 q 203 719 203 787 l 203 231 z "},"Ö":{"ha":610,"x_min":0,"x_max":543,"o":"m 0 692 q 271 963 0 963 q 543 692 543 963 l 543 258 q 271 -14 543 -14 q 0 258 0 -14 l 0 692 m 203 231 q 271 163 203 163 q 339 231 339 163 l 339 719 q 271 787 339 787 q 203 719 203 787 l 203 231 m 237 1153 l 237 1017 l 102 1017 l 102 1153 l 237 1153 m 441 1153 l 441 1017 l 305 1017 l 305 1153 l 441 1153 z "},"Ø":{"ha":610,"x_min":0,"x_max":543,"o":"m 287 163 q 339 231 339 171 l 339 353 l 287 163 m 256 786 q 203 719 203 779 l 203 597 l 256 786 m 56 67 q 0 258 0 134 l 0 692 q 271 963 0 963 q 305 962 289 963 l 339 1085 l 543 1085 l 486 882 q 543 692 543 815 l 543 258 q 271 -14 543 -14 q 237 -12 254 -14 l 203 -136 l 0 -136 l 56 67 z "},"Ù":{"ha":610,"x_min":0,"x_max":543,"o":"m 0 949 l 203 949 l 203 231 q 271 163 203 163 q 339 231 339 163 l 339 949 l 543 949 l 543 258 q 271 -14 543 -14 q 0 258 0 -14 l 0 949 m 90 1227 l 294 1227 l 361 1024 l 226 1024 l 90 1227 z "},"Ú":{"ha":610,"x_min":0,"x_max":543,"o":"m 0 949 l 203 949 l 203 231 q 271 163 203 163 q 339 231 339 163 l 339 949 l 543 949 l 543 258 q 271 -14 543 -14 q 0 258 0 -14 l 0 949 m 317 1024 l 181 1024 l 249 1227 l 452 1227 l 317 1024 z "},"Û":{"ha":610,"x_min":0,"x_max":543,"o":"m 102 982 l 271 1153 l 441 982 l 317 982 l 271 1017 l 227 982 l 102 982 m 0 949 l 203 949 l 203 231 q 271 163 203 163 q 339 231 339 163 l 339 949 l 543 949 l 543 258 q 271 -14 543 -14 q 0 258 0 -14 l 0 949 z "},"Ü":{"ha":610,"x_min":0,"x_max":543,"o":"m 237 1146 l 237 1010 l 102 1010 l 102 1146 l 237 1146 m 441 1146 l 441 1010 l 305 1010 l 305 1146 l 441 1146 m 0 949 l 203 949 l 203 231 q 271 163 203 163 q 339 231 339 163 l 339 949 l 543 949 l 543 258 q 271 -14 543 -14 q 0 258 0 -14 l 0 949 z "},"Ý":{"ha":610,"x_min":-14,"x_max":556,"o":"m 170 377 l -14 949 l 190 949 l 271 651 l 353 949 l 556 949 l 373 377 l 373 0 l 170 0 l 170 377 m 317 1024 l 181 1024 l 249 1227 l 452 1227 l 317 1024 z "},"Þ":{"ha":678,"x_min":0,"x_max":610,"o":"m 203 312 l 339 312 q 407 380 407 312 l 407 570 q 339 637 407 637 l 203 637 l 203 312 m 203 814 l 339 814 q 610 570 610 814 l 610 380 q 339 136 610 136 l 203 136 l 203 0 l 0 0 l 0 949 l 203 949 l 203 814 z "},"ß":{"ha":610,"x_min":0,"x_max":543,"o":"m 271 949 q 543 678 543 949 q 427 475 543 475 q 543 271 543 475 q 271 0 543 0 l 271 176 q 339 244 339 176 l 339 319 q 271 387 339 387 l 271 563 q 339 631 339 563 l 339 705 q 271 773 339 773 q 203 705 203 773 l 203 0 l 0 0 l 0 678 q 271 949 0 949 z "},"à":{"ha":610,"x_min":0,"x_max":543,"o":"m 271 271 q 203 217 203 271 q 271 163 203 163 q 339 210 339 163 l 339 271 l 271 271 m 339 407 l 339 448 q 271 515 339 515 q 207 475 219 515 l 3 475 q 271 692 28 692 q 543 420 543 692 l 543 0 l 339 0 l 339 27 q 203 -14 339 -14 q 0 156 0 -14 l 0 237 q 203 407 0 407 l 339 407 m 90 949 l 294 949 l 361 746 l 226 746 l 90 949 z "},"á":{"ha":610,"x_min":0,"x_max":543,"o":"m 271 271 q 203 217 203 271 q 271 163 203 163 q 339 210 339 163 l 339 271 l 271 271 m 339 407 l 339 448 q 271 515 339 515 q 207 475 219 515 l 3 475 q 271 692 28 692 q 543 420 543 692 l 543 0 l 339 0 l 339 27 q 203 -14 339 -14 q 0 156 0 -14 l 0 237 q 203 407 0 407 l 339 407 m 317 746 l 181 746 l 249 949 l 452 949 l 317 746 z "},"â":{"ha":610,"x_min":0,"x_max":543,"o":"m 271 271 q 203 217 203 271 q 271 163 203 163 q 339 210 339 163 l 339 271 l 271 271 m 339 407 l 339 448 q 271 515 339 515 q 207 475 219 515 l 3 475 q 271 692 28 692 q 543 420 543 692 l 543 0 l 339 0 l 339 27 q 203 -14 339 -14 q 0 156 0 -14 l 0 237 q 203 407 0 407 l 339 407 m 102 746 l 271 917 l 441 746 l 317 746 l 271 781 l 227 746 l 102 746 z "},"ã":{"ha":610,"x_min":0,"x_max":543,"o":"m 271 271 q 203 217 203 271 q 271 163 203 163 q 339 210 339 163 l 339 271 l 271 271 m 339 407 l 339 448 q 271 515 339 515 q 207 475 219 515 l 3 475 q 271 692 28 692 q 543 420 543 692 l 543 0 l 339 0 l 339 27 q 203 -14 339 -14 q 0 156 0 -14 l 0 237 q 203 407 0 407 l 339 407 m 102 870 q 277 870 202 920 q 452 870 352 820 l 452 740 q 277 740 352 690 q 102 740 202 790 l 102 870 z "},"ä":{"ha":610,"x_min":0,"x_max":543,"o":"m 271 271 q 203 217 203 271 q 271 163 203 163 q 339 210 339 163 l 339 271 l 271 271 m 339 407 l 339 448 q 271 515 339 515 q 207 475 219 515 l 3 475 q 271 692 28 692 q 543 420 543 692 l 543 0 l 339 0 l 339 27 q 203 -14 339 -14 q 0 156 0 -14 l 0 237 q 203 407 0 407 l 339 407 m 237 882 l 237 746 l 102 746 l 102 882 l 237 882 m 441 882 l 441 746 l 305 746 l 305 882 l 441 882 z "},"å":{"ha":610,"x_min":0,"x_max":543,"o":"m 271 271 q 203 217 203 271 q 271 163 203 163 q 339 210 339 163 l 339 271 l 271 271 m 339 407 l 339 448 q 271 515 339 515 q 207 475 219 515 l 3 475 q 271 692 28 692 q 543 420 543 692 l 543 0 l 339 0 l 339 27 q 203 -14 339 -14 q 0 156 0 -14 l 0 237 q 203 407 0 407 l 339 407 m 272 935 q 343 905 314 935 q 373 833 373 876 q 343 762 373 791 q 272 732 314 732 q 200 762 230 732 q 171 833 171 791 q 200 905 171 876 q 272 935 230 935 m 272 874 q 243 862 255 874 q 231 833 231 850 q 243 805 231 817 q 272 793 255 793 q 301 805 289 793 q 313 833 313 817 q 301 862 313 850 q 272 874 289 874 z "},"æ":{"ha":949,"x_min":0,"x_max":882,"o":"m 503 0 l 339 0 l 339 27 q 203 -14 339 -14 q 0 156 0 -14 l 0 237 q 203 407 0 407 l 339 407 l 339 448 q 271 515 339 515 q 207 475 219 515 l 3 475 q 271 692 28 692 q 441 651 376 692 q 610 692 505 692 q 882 420 882 692 l 882 271 l 543 271 l 543 231 q 610 163 543 163 q 675 203 663 163 l 879 203 q 610 -14 853 -14 q 503 0 550 -14 m 543 407 l 678 407 l 678 448 q 610 515 678 515 q 543 448 543 515 l 543 407 m 339 271 l 271 271 q 203 217 203 271 q 271 163 203 163 q 339 210 339 163 l 339 271 z "},"ç":{"ha":610,"x_min":0,"x_max":543,"o":"m 199 -8 q 0 258 0 25 l 0 420 q 271 692 0 692 q 543 420 543 692 l 543 407 l 339 407 l 339 448 q 271 515 339 515 q 203 448 203 515 l 203 231 q 271 163 203 163 q 339 231 339 163 l 339 271 l 543 271 l 543 258 q 334 -9 543 20 l 305 -68 q 305 -203 373 -136 l 170 -203 q 170 -68 237 -136 l 199 -8 z "},"è":{"ha":610,"x_min":0,"x_max":543,"o":"m 339 407 l 339 448 q 271 515 339 515 q 203 448 203 515 l 203 407 l 339 407 m 203 271 l 203 231 q 271 163 203 163 q 336 203 323 163 l 540 203 q 271 -14 514 -14 q 0 258 0 -14 l 0 420 q 271 692 0 692 q 543 420 543 692 l 543 271 l 203 271 m 90 949 l 294 949 l 361 746 l 226 746 l 90 949 z "},"é":{"ha":610,"x_min":0,"x_max":543,"o":"m 339 407 l 339 448 q 271 515 339 515 q 203 448 203 515 l 203 407 l 339 407 m 203 271 l 203 231 q 271 163 203 163 q 336 203 323 163 l 540 203 q 271 -14 514 -14 q 0 258 0 -14 l 0 420 q 271 692 0 692 q 543 420 543 692 l 543 271 l 203 271 m 317 746 l 181 746 l 249 949 l 452 949 l 317 746 z "},"ê":{"ha":610,"x_min":0,"x_max":543,"o":"m 339 407 l 339 448 q 271 515 339 515 q 203 448 203 515 l 203 407 l 339 407 m 203 271 l 203 231 q 271 163 203 163 q 336 203 323 163 l 540 203 q 271 -14 514 -14 q 0 258 0 -14 l 0 420 q 271 692 0 692 q 543 420 543 692 l 543 271 l 203 271 m 102 746 l 271 917 l 441 746 l 317 746 l 271 781 l 227 746 l 102 746 z "},"ë":{"ha":610,"x_min":0,"x_max":543,"o":"m 339 407 l 339 448 q 271 515 339 515 q 203 448 203 515 l 203 407 l 339 407 m 203 271 l 203 231 q 271 163 203 163 q 336 203 323 163 l 540 203 q 271 -14 514 -14 q 0 258 0 -14 l 0 420 q 271 692 0 692 q 543 420 543 692 l 543 271 l 203 271 m 237 882 l 237 746 l 102 746 l 102 882 l 237 882 m 441 882 l 441 746 l 305 746 l 305 882 l 441 882 z "},"ì":{"ha":271,"x_min":-68,"x_max":203,"o":"m -68 949 l 136 949 l 203 746 l 68 746 l -68 949 m 203 678 l 203 0 l 0 0 l 0 678 l 203 678 z "},"í":{"ha":271,"x_min":0,"x_max":271,"o":"m 136 746 l 0 746 l 68 949 l 271 949 l 136 746 m 203 678 l 203 0 l 0 0 l 0 678 l 203 678 z "},"î":{"ha":271,"x_min":-68,"x_max":272,"o":"m 203 678 l 203 0 l 0 0 l 0 678 l 203 678 m -68 746 l 102 917 l 272 746 l 147 746 l 102 781 l 57 746 l -68 746 z "},"ï":{"ha":271,"x_min":-68,"x_max":271,"o":"m 68 882 l 68 746 l -68 746 l -68 882 l 68 882 m 271 882 l 271 746 l 136 746 l 136 882 l 271 882 m 203 678 l 203 0 l 0 0 l 0 678 l 203 678 z "},"ð":{"ha":610,"x_min":0,"x_max":543,"o":"m 339 346 q 271 393 339 393 q 203 339 203 393 l 203 231 q 271 163 203 163 q 339 231 339 163 l 339 346 m 339 719 q 271 787 339 787 l 271 963 q 543 692 543 963 l 543 258 q 271 -14 543 -14 q 0 258 0 -14 l 0 393 q 203 583 0 583 q 339 536 339 583 l 339 651 l 258 651 l 258 719 l 339 719 z "},"ñ":{"ha":610,"x_min":0,"x_max":543,"o":"m 203 468 l 203 0 l 0 0 l 0 678 l 203 678 l 203 644 q 339 692 203 691 q 543 522 543 692 l 543 0 l 339 0 l 339 461 q 271 515 339 515 q 203 468 203 515 m 102 870 q 277 870 202 920 q 452 870 352 820 l 452 740 q 277 740 352 690 q 102 740 202 790 l 102 870 z "},"ò":{"ha":610,"x_min":0,"x_max":543,"o":"m 203 231 q 271 163 203 163 q 339 231 339 163 l 339 448 q 271 515 339 515 q 203 448 203 515 l 203 231 m 271 692 q 543 420 543 692 l 543 258 q 271 -14 543 -14 q 0 258 0 -14 l 0 420 q 271 692 0 692 m 90 949 l 294 949 l 361 746 l 226 746 l 90 949 z "},"ó":{"ha":610,"x_min":0,"x_max":543,"o":"m 203 231 q 271 163 203 163 q 339 231 339 163 l 339 448 q 271 515 339 515 q 203 448 203 515 l 203 231 m 271 692 q 543 420 543 692 l 543 258 q 271 -14 543 -14 q 0 258 0 -14 l 0 420 q 271 692 0 692 m 317 746 l 181 746 l 249 949 l 452 949 l 317 746 z "},"ô":{"ha":610,"x_min":0,"x_max":543,"o":"m 203 231 q 271 163 203 163 q 339 231 339 163 l 339 448 q 271 515 339 515 q 203 448 203 515 l 203 231 m 271 692 q 543 420 543 692 l 543 258 q 271 -14 543 -14 q 0 258 0 -14 l 0 420 q 271 692 0 692 m 102 746 l 271 917 l 441 746 l 317 746 l 271 781 l 227 746 l 102 746 z "},"õ":{"ha":610,"x_min":0,"x_max":543,"o":"m 203 231 q 271 163 203 163 q 339 231 339 163 l 339 448 q 271 515 339 515 q 203 448 203 515 l 203 231 m 271 692 q 543 420 543 692 l 543 258 q 271 -14 543 -14 q 0 258 0 -14 l 0 420 q 271 692 0 692 m 102 870 q 277 870 202 920 q 452 870 352 820 l 452 740 q 277 740 352 690 q 102 740 202 790 l 102 870 z "},"ö":{"ha":610,"x_min":0,"x_max":543,"o":"m 203 231 q 271 163 203 163 q 339 231 339 163 l 339 448 q 271 515 339 515 q 203 448 203 515 l 203 231 m 271 692 q 543 420 543 692 l 543 258 q 271 -14 543 -14 q 0 258 0 -14 l 0 420 q 271 692 0 692 m 237 882 l 237 746 l 102 746 l 102 882 l 237 882 m 441 882 l 441 746 l 305 746 l 305 882 l 441 882 z "},"÷":{"ha":678,"x_min":0,"x_max":610,"o":"m 0 387 l 0 563 l 610 563 l 610 387 l 0 387 m 203 610 l 203 787 l 407 787 l 407 610 l 203 610 m 203 163 l 203 339 l 407 339 l 407 163 l 203 163 z "},"ø":{"ha":610,"x_min":0,"x_max":543,"o":"m 418 663 q 543 420 543 604 l 543 258 q 271 -14 543 -14 l 255 -14 l 226 -136 l 88 -136 l 124 15 q 0 258 0 74 l 0 420 q 271 692 0 692 l 288 692 l 317 815 l 454 815 l 418 663 m 203 342 l 244 512 q 203 448 203 500 l 203 342 m 339 336 l 298 166 q 339 231 339 178 l 339 336 z "},"ù":{"ha":610,"x_min":0,"x_max":543,"o":"m 339 210 l 339 678 l 543 678 l 543 0 l 339 0 l 339 34 q 203 -14 339 -13 q 0 156 0 -14 l 0 678 l 203 678 l 203 217 q 271 163 203 163 q 339 210 339 163 m 90 949 l 294 949 l 361 746 l 226 746 l 90 949 z "},"ú":{"ha":610,"x_min":0,"x_max":543,"o":"m 339 210 l 339 678 l 543 678 l 543 0 l 339 0 l 339 34 q 203 -14 339 -13 q 0 156 0 -14 l 0 678 l 203 678 l 203 217 q 271 163 203 163 q 339 210 339 163 m 317 746 l 181 746 l 249 949 l 452 949 l 317 746 z "},"û":{"ha":610,"x_min":0,"x_max":543,"o":"m 339 210 l 339 678 l 543 678 l 543 0 l 339 0 l 339 34 q 203 -14 339 -13 q 0 156 0 -14 l 0 678 l 203 678 l 203 217 q 271 163 203 163 q 339 210 339 163 m 102 746 l 271 917 l 441 746 l 317 746 l 271 781 l 227 746 l 102 746 z "},"ü":{"ha":610,"x_min":0,"x_max":543,"o":"m 339 210 l 339 678 l 543 678 l 543 0 l 339 0 l 339 34 q 203 -14 339 -13 q 0 156 0 -14 l 0 678 l 203 678 l 203 217 q 271 163 203 163 q 339 210 339 163 m 237 882 l 237 746 l 102 746 l 102 882 l 237 882 m 441 882 l 441 746 l 305 746 l 305 882 l 441 882 z "},"ý":{"ha":610,"x_min":0,"x_max":543,"o":"m 339 678 l 543 678 l 543 0 q 271 -271 543 -271 q 3 -54 28 -271 l 207 -54 q 271 -95 219 -95 q 339 -27 339 -95 l 339 35 q 203 -13 339 -12 q 0 157 0 -13 l 0 678 l 203 678 l 203 218 q 271 163 203 163 q 339 211 339 163 l 339 678 m 317 746 l 181 746 l 249 949 l 452 949 l 317 746 z "},"þ":{"ha":610,"x_min":0,"x_max":543,"o":"m 203 468 l 203 210 q 271 163 203 163 q 339 217 339 163 l 339 461 q 271 515 339 515 q 203 468 203 515 m 543 156 q 339 -14 543 -14 q 203 34 203 -14 l 203 -271 l 0 -271 l 0 949 l 203 950 l 203 644 q 339 692 203 691 q 543 522 543 692 l 543 156 z "},"ÿ":{"ha":610,"x_min":0,"x_max":543,"o":"m 339 678 l 543 678 l 543 0 q 271 -271 543 -271 q 3 -54 28 -271 l 207 -54 q 271 -95 219 -95 q 339 -27 339 -95 l 339 35 q 203 -13 339 -12 q 0 157 0 -13 l 0 678 l 203 678 l 203 218 q 271 163 203 163 q 339 211 339 163 l 339 678 m 237 882 l 237 746 l 102 746 l 102 882 l 237 882 m 441 882 l 441 746 l 305 746 l 305 882 l 441 882 z "},"̀":{"ha":0,"x_min":-475,"x_max":-203,"o":"m -475 949 l -271 949 l -203 746 l -339 746 l -475 949 z "},"́":{"ha":0,"x_min":-454,"x_max":-183,"o":"m -319 746 l -454 746 l -387 949 l -183 949 l -319 746 z "},"̂":{"ha":475,"x_min":0,"x_max":407,"o":"m 0 610 l 203 949 l 407 610 l 258 610 l 203 679 l 149 610 l 0 610 z "},"̃":{"ha":407,"x_min":0,"x_max":351,"o":"m 0 1128 q 175 1128 100 1178 q 351 1128 250 1078 l 351 998 q 175 998 250 947 q 0 998 100 1048 l 0 1128 z "},"Œ":{"ha":882,"x_min":0,"x_max":814,"o":"m 379 0 q 271 -14 332 -14 q 0 258 0 -14 l 0 692 q 271 963 0 963 q 379 949 332 963 l 814 949 l 814 773 l 543 773 l 543 563 l 746 563 l 746 387 l 543 387 l 543 176 l 814 176 l 814 0 l 379 0 m 339 719 q 271 787 339 787 q 203 719 203 787 l 203 231 q 271 163 203 163 q 339 231 339 163 l 339 719 z "},"œ":{"ha":949,"x_min":0,"x_max":882,"o":"m 441 27 q 271 -14 376 -14 q 0 258 0 -14 l 0 420 q 271 692 0 692 q 441 651 376 692 q 610 692 505 692 q 882 420 882 692 l 882 271 l 543 271 l 543 231 q 610 163 543 163 q 675 203 663 163 l 879 203 q 610 -14 853 -14 q 441 27 505 -14 m 543 407 l 678 407 l 678 448 q 610 515 678 515 q 543 448 543 515 l 543 407 m 339 448 q 271 515 339 515 q 203 448 203 515 l 203 231 q 271 163 203 163 q 339 231 339 163 l 339 448 z "}}}
